<svg xmlns="http://www.w3.org/2000/svg" xmlns:xlink="http://www.w3.org/1999/xlink" width="1080" zoomAndPan="magnify" viewBox="0 0 810 809.999993" height="1080" preserveAspectRatio="xMidYMid meet" version="1.0"><defs><clipPath id="f910e65ee5"><path d="M 216.222656 107.210938 L 593.472656 107.210938 L 593.472656 702.707031 L 216.222656 702.707031 Z M 216.222656 107.210938 " clip-rule="nonzero"/></clipPath></defs><g clip-path="url(#f910e65ee5)"><path fill="#c5547e" d="M 593.023438 404.683594 C 591.417969 448.011719 594.847656 490.820312 591.140625 533.527344 C 584.226562 613.253906 524.503906 680.898438 446.082031 698.042969 C 341.257812 720.953125 239.605469 654.542969 219.261719 549.578125 C 217.277344 539.328125 216.484375 528.710938 216.449219 518.257812 C 216.203125 444.324219 216.160156 370.390625 216.316406 296.457031 C 216.515625 202.734375 281.425781 126.222656 374.324219 109.867188 C 478.425781 91.535156 581.996094 170.390625 591.09375 274.765625 C 594.882812 318.238281 591.222656 361.78125 593.019531 404.683594 Z M 558.105469 406.195312 C 558.105469 368.285156 558.566406 330.367188 557.996094 292.46875 C 557.207031 239.996094 534.882812 197.832031 491.402344 168.652344 C 440.980469 134.820312 386.898438 131.136719 332.855469 159.585938 C 279.3125 187.769531 251.6875 233.667969 250.851562 293.828125 C 249.804688 368.886719 250.472656 443.964844 250.488281 519.03125 C 250.488281 525.023438 250.699219 531.089844 251.625 536.992188 C 264.265625 617.523438 333.390625 671.609375 412.496094 668.621094 C 489.851562 665.703125 557.914062 598.058594 558.09375 521.050781 C 558.183594 482.765625 558.109375 444.480469 558.113281 406.195312 Z M 558.105469 406.195312 " fill-opacity="1" fill-rule="nonzero"/></g><path fill="#c5547e" d="M 385.164062 441.722656 C 373.804688 452.703125 362.816406 463.503906 351.621094 474.105469 C 345.171875 480.210938 338.480469 486.09375 331.738281 491.898438 C 325.214844 497.511719 318.640625 496.417969 312.4375 491.296875 C 306.050781 486.027344 303.117188 479.609375 307.675781 472.046875 C 310.097656 468.03125 313.402344 464.390625 316.824219 461.070312 C 335.691406 442.746094 354.492188 424.347656 373.832031 406.492188 C 379.511719 401.25 378.832031 398.253906 373.691406 393.410156 C 353.457031 374.351562 333.542969 354.976562 313.578125 335.65625 C 308.070312 330.324219 303.625 324.402344 306.765625 316.289062 C 311.195312 304.855469 324.21875 301.425781 334.210938 310.175781 C 349.269531 323.363281 363.289062 337.648438 377.828125 351.390625 C 380.390625 353.808594 382.070312 357.492188 386.648438 357.722656 C 389.226562 354.078125 388.007812 349.980469 388.019531 346.175781 C 388.128906 310.222656 388.144531 274.265625 387.996094 238.308594 C 387.957031 229.464844 389.050781 221.355469 398.808594 217.535156 C 408.496094 213.746094 414.640625 219.785156 420.238281 225.769531 C 445.992188 253.308594 471.636719 280.941406 497.148438 308.6875 C 506.078125 318.398438 506.121094 324.734375 496.484375 334.269531 C 476.75 353.800781 456.800781 373.15625 436.359375 392 C 429.898438 397.953125 429.429688 401.5625 436.019531 407.632812 C 455.375 425.46875 474.214844 443.832031 493.148438 462.089844 C 506.570312 475.027344 506.84375 480.539062 494.355469 494.238281 C 471.453125 519.359375 448.378906 544.335938 425.328125 569.332031 C 422.578125 572.316406 419.566406 575.085938 416.582031 577.859375 C 411.316406 582.746094 405.410156 585.167969 398.078125 582.199219 C 390.839844 579.265625 388.101562 573.761719 388.101562 566.605469 C 388.09375 553.894531 388.140625 541.183594 388.113281 528.472656 C 388.058594 503.050781 388 477.625 387.855469 452.203125 C 387.839844 449.089844 388.789062 445.6875 385.167969 441.722656 Z M 421.941406 523.761719 C 435.359375 509.269531 447.316406 496.410156 459.191406 483.480469 C 461.585938 480.878906 461.171875 477.867188 458.789062 475.613281 C 447.0625 464.527344 435.1875 453.589844 421.941406 441.277344 Z M 424.105469 278.921875 C 423.039062 279.210938 421.976562 279.492188 420.910156 279.777344 C 420.910156 304.265625 420.714844 328.757812 421.042969 353.242188 C 421.125 359.566406 425.152344 356.902344 427.636719 354.585938 C 437.910156 345 447.941406 335.171875 458.207031 325.566406 C 461.671875 322.328125 461.441406 319.078125 458.621094 316.007812 C 447.207031 303.570312 435.621094 291.273438 424.105469 278.925781 Z M 424.105469 278.921875 " fill-opacity="1" fill-rule="nonzero"/></svg>