<svg xmlns="http://www.w3.org/2000/svg" xmlns:xlink="http://www.w3.org/1999/xlink" width="1080" zoomAndPan="magnify" viewBox="0 0 810 809.999993" height="1080" preserveAspectRatio="xMidYMid meet" version="1.0"><defs><clipPath id="2b1ea9a395"><path d="M 66.070312 238 L 744.070312 238 L 744.070312 578 L 66.070312 578 Z M 66.070312 238 " clip-rule="nonzero"/></clipPath></defs><g clip-path="url(#2b1ea9a395)"><path fill="#c5547e" d="M 150.820312 238.261719 C 128.34375 238.261719 106.789062 247.191406 90.894531 263.085938 C 75 278.976562 66.070312 300.535156 66.070312 323.011719 L 66.070312 492.511719 C 66.070312 514.988281 75 536.542969 90.894531 552.4375 C 106.789062 568.332031 128.34375 577.261719 150.820312 577.261719 L 574.570312 577.261719 C 597.046875 577.261719 618.605469 568.332031 634.5 552.4375 C 650.390625 536.542969 659.320312 514.988281 659.320312 492.511719 L 659.320312 323.011719 C 659.320312 300.535156 650.390625 278.976562 634.5 263.085938 C 618.605469 247.191406 597.046875 238.261719 574.570312 238.261719 Z M 574.570312 280.636719 C 585.808594 280.636719 596.585938 285.101562 604.535156 293.046875 C 612.480469 300.996094 616.945312 311.773438 616.945312 323.011719 L 616.945312 492.511719 C 616.945312 503.75 612.480469 514.527344 604.535156 522.476562 C 596.585938 530.421875 585.808594 534.886719 574.570312 534.886719 L 150.820312 534.886719 C 139.582031 534.886719 128.804688 530.421875 120.855469 522.476562 C 112.910156 514.527344 108.445312 503.75 108.445312 492.511719 L 108.445312 323.011719 C 108.445312 311.773438 112.910156 300.996094 120.855469 293.046875 C 128.804688 285.101562 139.582031 280.636719 150.820312 280.636719 Z M 744.070312 407.761719 C 744.070312 424.621094 737.375 440.785156 725.453125 452.707031 C 713.535156 464.628906 697.367188 471.324219 680.507812 471.324219 L 680.507812 344.199219 C 697.367188 344.199219 713.535156 350.894531 725.453125 362.816406 C 737.375 374.738281 744.070312 390.902344 744.070312 407.761719 Z M 744.070312 407.761719 " fill-opacity="1" fill-rule="nonzero"/></g><path fill="#c5547e" d="M 417.496094 409.21875 L 369.980469 488.925781 C 366.78125 493.878906 362.15625 496.546875 357.402344 496.546875 C 355.488281 496.546875 353.546875 496.113281 351.683594 495.222656 C 344.835938 491.957031 341.519531 483.628906 343.808594 475.402344 L 352.71875 435.566406 L 324.371094 435.566406 C 316.378906 435.566406 309.09375 431.046875 305.347656 423.777344 C 301.605469 416.503906 302.070312 407.746094 306.554688 400.9375 L 354.058594 321.214844 C 358.550781 314.265625 365.847656 311.816406 372.363281 314.917969 C 379.210938 318.179688 382.523438 326.515625 380.238281 334.738281 L 371.320312 374.582031 L 399.6875 374.601562 C 407.675781 374.601562 414.957031 379.125 418.703125 386.394531 C 422.441406 393.660156 421.980469 402.410156 417.496094 409.21875 Z M 417.496094 409.21875 " fill-opacity="1" fill-rule="nonzero"/></svg>