<svg xmlns="http://www.w3.org/2000/svg" xmlns:xlink="http://www.w3.org/1999/xlink" width="1080" zoomAndPan="magnify" viewBox="0 0 810 809.999993" height="1080" preserveAspectRatio="xMidYMid meet" version="1.0"><defs><clipPath id="71b2e6b611"><path d="M 388 156.25 L 422 156.25 L 422 653.5 L 388 653.5 Z M 388 156.25 " clip-rule="nonzero"/></clipPath><clipPath id="0254bb1b00"><path d="M 710 331 L 744.070312 331 L 744.070312 479 L 710 479 Z M 710 331 " clip-rule="nonzero"/></clipPath><clipPath id="3650777872"><path d="M 66.070312 331 L 100 331 L 100 479 L 66.070312 479 Z M 66.070312 331 " clip-rule="nonzero"/></clipPath></defs><g clip-path="url(#71b2e6b611)"><path fill="#c5547e" d="M 421.773438 404.632812 C 421.773438 479.847656 421.773438 555.058594 421.765625 630.273438 C 421.765625 632.792969 421.894531 635.339844 421.628906 637.839844 C 420.714844 646.480469 413.890625 652.863281 405.511719 653.089844 C 397.234375 653.308594 389.976562 647.167969 388.679688 638.609375 C 388.300781 636.136719 388.421875 633.574219 388.421875 631.054688 C 388.410156 480.125 388.410156 329.191406 388.421875 178.261719 C 388.421875 175.738281 388.296875 173.179688 388.667969 170.703125 C 389.953125 162.097656 397.078125 156.070312 405.480469 156.253906 C 413.894531 156.4375 420.703125 162.757812 421.628906 171.425781 C 421.894531 173.925781 421.761719 176.464844 421.761719 178.992188 C 421.769531 254.203125 421.769531 329.417969 421.769531 404.628906 Z M 421.773438 404.632812 " fill-opacity="1" fill-rule="nonzero"/></g><path fill="#c5547e" d="M 260.597656 405.53125 C 260.597656 470.15625 260.609375 534.777344 260.582031 599.402344 C 260.578125 610.890625 255.066406 617.890625 245.636719 618.683594 C 236.351562 619.46875 228.832031 613.550781 227.503906 604.195312 C 227.117188 601.464844 227.269531 598.652344 227.269531 595.878906 C 227.261719 468.402344 227.261719 340.921875 227.277344 213.441406 C 227.277344 209.675781 226.960938 205.902344 228.21875 202.1875 C 230.855469 194.402344 237.453125 190.027344 245.753906 190.765625 C 253.28125 191.441406 259.386719 197.199219 260.394531 204.859375 C 260.753906 207.59375 260.589844 210.402344 260.589844 213.179688 C 260.597656 277.296875 260.597656 341.414062 260.597656 405.53125 Z M 260.597656 405.53125 " fill-opacity="1" fill-rule="nonzero"/><path fill="#c5547e" d="M 549.539062 403.898438 C 549.539062 339.273438 549.523438 274.648438 549.550781 210.03125 C 549.558594 198.21875 555.386719 191.148438 565.25 190.703125 C 574.234375 190.300781 581.320312 196.132812 582.621094 205.25 C 583.011719 207.976562 582.863281 210.789062 582.863281 213.5625 C 582.871094 341.042969 582.875 468.523438 582.855469 596.003906 C 582.855469 599.765625 583.15625 603.542969 581.890625 607.25 C 579.234375 615.0625 572.660156 619.421875 564.363281 618.671875 C 556.835938 617.992188 550.714844 612.21875 549.730469 604.574219 C 549.378906 601.835938 549.539062 599.03125 549.539062 596.253906 C 549.53125 532.132812 549.535156 468.015625 549.535156 403.894531 Z M 549.539062 403.898438 " fill-opacity="1" fill-rule="nonzero"/><path fill="#c5547e" d="M 468.980469 404.292969 C 468.980469 358.359375 468.933594 312.429688 469.007812 266.496094 C 469.03125 252.601562 479.441406 244.277344 491.136719 248.546875 C 497.742188 250.957031 501.226562 255.910156 502.164062 262.667969 C 502.507812 265.148438 502.332031 267.707031 502.332031 270.226562 C 502.335938 359.820312 502.335938 449.414062 502.335938 539.007812 C 502.335938 540.519531 502.367188 542.035156 502.324219 543.546875 C 502.023438 554.53125 494.960938 562.105469 485.28125 561.851562 C 475.78125 561.605469 469.070312 554.292969 469.019531 543.601562 C 468.902344 518.617188 468.976562 493.632812 468.976562 468.644531 C 468.976562 447.191406 468.976562 425.738281 468.976562 404.289062 Z M 468.980469 404.292969 " fill-opacity="1" fill-rule="nonzero"/><path fill="#c5547e" d="M 307.804688 404.773438 C 307.804688 358.589844 307.742188 312.40625 307.84375 266.222656 C 307.875 252.230469 319.339844 243.71875 330.964844 248.894531 C 338.25 252.136719 341.195312 258.199219 341.171875 265.972656 C 341.121094 281.871094 341.160156 297.769531 341.160156 313.667969 C 341.160156 388.621094 341.160156 463.574219 341.15625 538.527344 C 341.15625 541.300781 341.3125 544.101562 340.992188 546.847656 C 339.996094 555.40625 332.945312 561.773438 324.625 561.851562 C 316.339844 561.929688 309.179688 555.660156 308.011719 547.09375 C 307.675781 544.609375 307.8125 542.054688 307.8125 539.535156 C 307.800781 494.609375 307.800781 449.691406 307.804688 404.769531 Z M 307.804688 404.773438 " fill-opacity="1" fill-rule="nonzero"/><path fill="#c5547e" d="M 180.070312 404.949219 C 180.070312 434.722656 180.074219 464.496094 180.066406 494.269531 C 180.066406 496.792969 180.1875 499.339844 179.875 501.828125 C 178.878906 509.726562 172.492188 515.578125 164.535156 516.105469 C 156.945312 516.605469 150.207031 511.894531 147.765625 504.523438 C 146.628906 501.078125 146.765625 497.558594 146.765625 494.035156 C 146.761719 434.488281 146.765625 374.941406 146.765625 315.394531 C 146.765625 314.382812 146.75 313.375 146.769531 312.367188 C 147 300.6875 153.742188 292.964844 163.621094 293.058594 C 173.59375 293.152344 180.039062 300.714844 180.054688 312.605469 C 180.105469 343.390625 180.074219 374.167969 180.074219 404.953125 Z M 180.070312 404.949219 " fill-opacity="1" fill-rule="nonzero"/><path fill="#c5547e" d="M 630.082031 404.757812 C 630.082031 373.46875 629.976562 342.179688 630.132812 310.890625 C 630.199219 297.289062 642.570312 289.132812 653.988281 294.917969 C 661.503906 298.726562 663.449219 305.410156 663.429688 313.285156 C 663.332031 348.105469 663.386719 382.929688 663.386719 417.75 C 663.386719 443.996094 663.429688 470.238281 663.359375 496.480469 C 663.335938 506.414062 659.453125 512.710938 652.160156 515.207031 C 640.882812 519.066406 630.207031 511.25 630.140625 498.625 C 629.976562 467.339844 630.085938 436.046875 630.082031 404.757812 Z M 630.082031 404.757812 " fill-opacity="1" fill-rule="nonzero"/><g clip-path="url(#0254bb1b00)"><path fill="#c5547e" d="M 710.722656 404.527344 C 710.722656 386.363281 710.667969 368.199219 710.742188 350.039062 C 710.789062 338.664062 717.203125 331.320312 726.992188 331.148438 C 736.902344 330.980469 743.964844 338.691406 743.996094 350.261719 C 744.09375 386.585938 744.101562 422.914062 743.988281 459.238281 C 743.953125 470.90625 736.960938 478.269531 726.78125 478 C 716.917969 477.734375 710.78125 470.574219 710.738281 459.007812 C 710.671875 440.847656 710.722656 422.6875 710.722656 404.519531 Z M 710.722656 404.527344 " fill-opacity="1" fill-rule="nonzero"/></g><g clip-path="url(#3650777872)"><path fill="#c5547e" d="M 99.425781 402.558594 C 99.425781 420.199219 99.351562 437.835938 99.46875 455.476562 C 99.507812 461.238281 98.144531 466.433594 94.714844 471.0625 C 90.992188 476.082031 86.308594 478.996094 79.746094 477.691406 C 73.171875 476.386719 68.871094 472.496094 67.109375 466.117188 C 66.386719 463.492188 66.15625 460.660156 66.152344 457.921875 C 66.089844 422.390625 66.164062 386.855469 66.070312 351.324219 C 66.050781 343.472656 67.980469 336.773438 75.480469 332.964844 C 86.597656 327.316406 99.15625 335.160156 99.339844 348.125 C 99.601562 366.261719 99.40625 384.410156 99.421875 402.558594 Z M 99.425781 402.558594 " fill-opacity="1" fill-rule="nonzero"/></g></svg>