<svg xmlns="http://www.w3.org/2000/svg" xmlns:xlink="http://www.w3.org/1999/xlink" width="1080" zoomAndPan="magnify" viewBox="0 0 810 809.999993" height="1080" preserveAspectRatio="xMidYMid meet" version="1.0"><defs><clipPath id="26e4f53490"><path d="M 614 160.242188 L 744 160.242188 L 744 649.992188 L 614 649.992188 Z M 614 160.242188 " clip-rule="nonzero"/></clipPath><clipPath id="fd82df8d29"><path d="M 66.070312 160.242188 L 196 160.242188 L 196 649.992188 L 66.070312 649.992188 Z M 66.070312 160.242188 " clip-rule="nonzero"/></clipPath></defs><g clip-path="url(#26e4f53490)"><path fill="#c5547e" d="M 707.589844 402.351562 C 706.089844 323.191406 679.621094 251.3125 621.171875 192.421875 C 613.8125 185.007812 612.179688 177.023438 616.160156 169.585938 C 619.921875 162.550781 627.570312 159.089844 635.671875 160.632812 C 639.773438 161.414062 642.929688 163.691406 645.738281 166.574219 C 699.207031 221.492188 732.042969 286.699219 740.859375 363.023438 C 753.25 470.308594 721.511719 563.253906 647.515625 641.785156 C 644.429688 645.0625 641.246094 648.15625 636.722656 649.355469 C 628.886719 651.429688 620.855469 648.292969 616.714844 641.535156 C 612.554688 634.757812 613.269531 626.550781 618.917969 620.191406 C 626.324219 611.851562 634.375 604.046875 641.378906 595.386719 C 686.179688 539.992188 706.539062 475.988281 707.589844 402.351562 Z M 707.589844 402.351562 " fill-opacity="1" fill-rule="nonzero"/></g><g clip-path="url(#fd82df8d29)"><path fill="#c5547e" d="M 177.453125 160.257812 C 185.097656 160.539062 190.734375 164.054688 193.636719 171.203125 C 196.65625 178.640625 195.007812 185.417969 189.402344 191.011719 C 177.964844 202.421875 167.203125 214.40625 157.847656 227.589844 C 116.855469 285.339844 98.828125 349.90625 102.3125 420.355469 C 106.085938 496.695312 133.730469 562.976562 187.851562 617.605469 C 196.601562 626.433594 197.339844 637.0625 190.03125 644.621094 C 182.574219 652.335938 171.484375 651.707031 162.472656 642.71875 C 112.773438 593.148438 82.917969 533.300781 71.265625 464.296875 C 59.515625 394.695312 67.617188 327.414062 96.382812 262.835938 C 112.398438 226.875 134.46875 195.058594 162.492188 167.398438 C 166.6875 163.253906 171.214844 160.035156 177.453125 160.253906 Z M 177.453125 160.257812 " fill-opacity="1" fill-rule="nonzero"/></g><path fill="#c5547e" d="M 477.714844 405.054688 C 477.742188 445.371094 445.121094 478.3125 405.167969 478.320312 C 363.300781 478.324219 331.644531 446.585938 331.800781 404.761719 C 331.957031 363.265625 363.449219 331.945312 405.082031 331.882812 C 445.023438 331.824219 477.6875 364.730469 477.710938 405.054688 Z M 477.714844 405.054688 " fill-opacity="1" fill-rule="nonzero"/><path fill="#c5547e" d="M 239.566406 223.007812 C 247.234375 222.984375 252.953125 226.378906 256.023438 233.445312 C 259.203125 240.769531 257.800781 247.605469 252.335938 253.363281 C 241.214844 265.085938 231.105469 277.5625 222.546875 291.316406 C 171.875 372.738281 181.539062 479.214844 246.085938 550.054688 C 247.753906 551.886719 249.476562 553.671875 251.136719 555.511719 C 259.367188 564.609375 259.710938 575.347656 252.011719 582.5625 C 244.527344 589.574219 233.972656 588.765625 225.558594 580.460938 C 211.1875 566.28125 198.871094 550.480469 188.691406 533.042969 C 136.539062 443.703125 144.617188 329.03125 208.886719 248.171875 C 214.273438 241.394531 220.453125 235.246094 226.40625 228.9375 C 229.917969 225.214844 234.183594 222.800781 239.566406 223.007812 Z M 239.566406 223.007812 " fill-opacity="1" fill-rule="nonzero"/><path fill="#c5547e" d="M 655.082031 409.523438 C 654.15625 473.066406 630.605469 531.566406 583.535156 580.425781 C 576.769531 587.453125 568.769531 589.144531 561.390625 585.496094 C 554.21875 581.949219 550.527344 574.449219 551.824219 566.28125 C 552.699219 560.746094 556.507812 557.128906 560.054688 553.339844 C 588.164062 523.292969 606.9375 488.273438 614.511719 447.761719 C 627.816406 376.566406 610.183594 313.695312 562.34375 259.347656 C 560.378906 257.113281 558.230469 255.039062 556.324219 252.761719 C 549.722656 244.855469 549.96875 234.6875 556.847656 227.933594 C 563.863281 221.054688 574.664062 221.070312 582.171875 228.484375 C 587.804688 234.046875 593.191406 239.929688 598.179688 246.078125 C 635.796875 292.4375 654.664062 345.546875 655.082031 409.523438 Z M 655.082031 409.523438 " fill-opacity="1" fill-rule="nonzero"/><path fill="#c5547e" d="M 566.582031 406.710938 C 565.6875 448.121094 551.308594 485.363281 522.050781 516.636719 C 518.625 520.292969 515.027344 523.613281 509.757812 524.398438 C 502.125 525.535156 495.109375 522.453125 491.265625 516.109375 C 487.5625 510.011719 487.953125 501.789062 492.617188 495.875 C 496.601562 490.816406 501.207031 486.246094 505.089844 481.121094 C 541.554688 433.007812 538.421875 364.839844 497.792969 320.175781 C 496.289062 318.527344 494.695312 316.953125 493.285156 315.230469 C 486.738281 307.21875 487.070312 297.164062 494.039062 290.40625 C 501.164062 283.5 511.867188 283.527344 519.378906 290.914062 C 534.589844 305.878906 546.054688 323.425781 554.222656 343.125 C 562.492188 363.0625 566.324219 383.902344 566.585938 406.707031 Z M 566.582031 406.710938 " fill-opacity="1" fill-rule="nonzero"/><path fill="#c5547e" d="M 301.402344 285.628906 C 309.523438 285.597656 314.925781 288.757812 318.164062 294.953125 C 321.523438 301.382812 321.246094 308.007812 316.800781 313.871094 C 313.070312 318.796875 308.578125 323.140625 304.800781 328.035156 C 266.890625 377.175781 270.074219 445.632812 312.316406 491.050781 C 315.363281 494.324219 318.511719 497.515625 319.6875 502.023438 C 321.792969 510.101562 318.304688 518.472656 311.210938 522.441406 C 303.972656 526.488281 295.410156 525.09375 288.90625 518.398438 C 266.378906 495.207031 251.613281 467.679688 246.023438 435.886719 C 236.484375 381.625 250.320312 333.792969 287.699219 293.042969 C 291.699219 288.683594 296.160156 285.398438 301.410156 285.628906 Z M 301.402344 285.628906 " fill-opacity="1" fill-rule="nonzero"/></svg>